<svg xmlns="http://www.w3.org/2000/svg" xmlns:xlink="http://www.w3.org/1999/xlink" version="1.1" width="1000" height="1000" viewBox="0 0 1000 1000" xml:space="preserve">
<desc>Created with Fabric.js 3.5.0</desc>
<defs>
</defs>
<rect x="0" y="0" width="100%" height="100%" fill="rgba(255,255,255,0)"/>
<g transform="matrix(6.4689 0 0 6.4689 500.2262 500.1948)" id="261331">
<g style="" vector-effect="non-scaling-stroke">
		<g transform="matrix(1.1478 0 0 1.1478 28.9754 -0.0033)" id="Layer_1" clip-path="url(#CLIPPATH_82)">
<clipPath id="CLIPPATH_82">
	<rect transform="matrix(1 0 0 1 -13.4509 109.9809)" id="SVGID_00000013896703810277407790000014761781640840017838_" x="-396" y="-306" rx="0" ry="0" width="792" height="612"/>
</clipPath>
<path style="stroke: none; stroke-width: 1; stroke-dasharray: none; stroke-linecap: butt; stroke-dashoffset: 0; stroke-linejoin: miter; stroke-miterlimit: 4; is-custom-font: none; font-file-url: none; fill: rgb(0,157,255); fill-rule: nonzero; opacity: 1;" transform=" translate(-409.4509, -196.0191)" d="M 400.3 214.9 h -4.6 c -0.4 0.7 -0.7 1.7 -1.3 1.9 c -1.7 0.6 -3.5 1 -5.3 1.4 c -2.4 -2.9 -5.7 -1.1 -8.6 -1.5 c -1.8 -0.3 -2.5 0.7 -2.5 2.5 c 0 1 0 2 0 3.2 c -1.9 0.4 -3.8 0.8 -5.9 1.2 c 0 -4.6 0 -9 0 -13.4 c 0 -1.2 0.9 -1.3 1.8 -1.3 c 2.3 0 4.7 0.1 7 0 c 0.5 0 1.1 -0.5 1.6 -0.8 c -0.5 -0.3 -1.1 -0.8 -1.6 -0.8 c -2.1 -0.1 -4.3 -0.1 -6.4 0 c -1.7 0.1 -2.5 -0.4 -2.4 -2.3 c 0.1 -3.4 -1.6 -4.5 -4.9 -3.5 c -0.3 0.1 -0.6 0.5 -0.8 0.8 c 0.3 0.3 0.6 0.7 0.9 0.8 c 1 0.2 2 0.1 3.1 0.2 v 20.4 c -1.5 0 -2.8 0 -4.2 0 c -1.4 0 -2.1 0.7 -2.1 2.1 c 0 3.1 0 6.3 0 9.4 c 0 0.5 0.5 1 0.8 1.5 c 0.3 -0.5 0.8 -1 0.9 -1.6 c 0.1 -2.4 0 -4.9 0 -7.4 c 0 -0.7 0 -1.4 0 -1.8 c 3.8 -0.5 7.4 -0.8 11 -1.4 c 3.2 -0.5 3.1 -0.6 3.1 -3.7 c 0 -0.6 0 -1.2 0 -2 h 7.1 c 0 1.7 -0.1 3.4 0 5.2 c 0 0.6 0.5 1.2 0.8 1.8 c 0.3 -0.6 0.8 -1.2 0.9 -1.8 c 0.1 -1.1 0 -2.2 0 -3.6 c 1.5 -0.4 3 -0.9 4.5 -1.3 c 1.1 -0.3 1.4 0.3 1.1 1.3 c -0.3 1.1 -0.7 2.3 -1.2 3.7 c 2.4 0 4.6 0 6.8 0 c 3.3 0 6.7 0.1 10 0 c 1.5 0 2.1 0.4 2.1 2 c -0.1 3.3 0.7 4 3.9 4 c 8.1 0 16.2 0 24.3 0 c 0.8 0 1.7 -0.4 2.4 -0.9 c 1.2 -0.8 2.4 -0.9 3.4 0.2 c 1 1 0.9 2.2 0 3.2 c -1 1.1 -2.2 1 -3.4 0.2 c -0.7 -0.4 -1.5 -0.8 -2.3 -0.8 c -8.1 -0.1 -16.2 0 -24.3 0 c -4.2 0 -5.4 -1 -5.9 -5.3 c 0 -0.2 -0.1 -0.3 -0.3 -0.7 c -5.5 0 -11.1 0 -16.7 0 c -0.5 0 -1.1 0.5 -1.3 1 c -0.6 1 -1 2 -1.5 3 c -0.5 1 -1.1 1.4 -1.8 0.1 c -0.2 -0.4 -0.7 -0.6 -1 -0.8 c -0.2 0.4 -0.5 0.8 -0.6 1.2 c -0.1 0.5 -0.1 1.1 0 1.7 c 0.2 1.9 -0.3 3.4 -1.6 4.8 c -0.6 0.6 -0.9 1.7 -1 2.7 c -0.2 1.5 0 3 0 4.6 h 12.8 c 1.5 -3.6 2.2 -4.1 6.2 -4.1 c 3.5 0 7 0 10.6 0 c 1.4 0 2.7 0.2 4 -1.1 c 0.9 -0.9 2.3 -0.6 3.1 0.5 c 0.8 1 0.7 2.2 -0.2 3.1 c -1 1 -2.1 0.9 -3.2 0.2 c -0.9 -0.5 -1.9 -0.9 -2.8 -1 c -4 -0.1 -7.9 -0.1 -11.9 0 c -2.7 0 -3.2 0.5 -3.8 3.1 c -0.1 0.5 -1 1.2 -1.5 1.2 c -4.5 0.1 -9 0 -13.6 0.1 c -1.2 0 -1.5 -0.6 -1.5 -1.6 c 0.1 -1.3 0 -2.5 0 -3.8 c -0.2 0 -0.3 -0.1 -0.4 -0.1 c -0.6 0.3 -1.2 0.6 -1.8 1 c -0.1 -0.7 -0.4 -1.4 -0.4 -2.1 c 0 -2.8 0 -5.7 -0.1 -8.5 c 0 -0.5 -0.6 -1 -0.9 -1.6 c -0.3 0.5 -0.8 1.1 -0.8 1.6 c -0.1 4.1 0 8.2 0 12.3 c 0 0.1 0 0.3 0 0.4 c 0.1 1.5 5.7 6.8 7.2 6.8 c 15.6 0 31.3 0 46.9 0 c 0.6 0 1.3 -0.3 1.8 -0.7 c 1.2 -1 2.4 -1.1 3.5 0.1 c 0.9 1 0.9 2.2 0 3.2 c -1 1.1 -2.2 0.9 -3.4 0.1 c -0.7 -0.5 -1.7 -0.8 -2.5 -0.8 c -15.5 0 -30.9 -0.1 -46.4 0 c -1.4 0 -2.5 -0.3 -3.3 -1.4 c -3.2 -4.7 -7.6 -6.3 -13.1 -5.4 c -0.9 0.1 -1.9 0 -3.1 0 c 0 -1.4 0.1 -2.7 0 -4 c 0 -0.5 -0.6 -0.9 -0.9 -1.3 c -0.2 0.4 -0.5 0.9 -0.7 1.3 c -0.1 0.1 0 0.2 0 0.4 c -0.2 5.4 -0.2 5.4 5.2 5.4 h 3.9 c 0.1 0.2 0.2 0.4 0.3 0.6 c -0.5 0.4 -0.9 0.9 -1.5 1.1 c -2.4 1 -4.8 1.9 -7.2 2.9 c -3.2 1.3 -3.2 1.3 -2.8 5.2 c 0.7 0 1.4 0 2.1 0 c 7.7 0 15.3 0 23 0 c 1.3 0 2.4 -0.1 2.8 1.7 c 0.1 0.6 1.4 1.3 2.2 1.3 c 5.5 0.1 10.9 0.1 16.4 0 c 0.5 0 1.1 -0.4 1.6 -0.8 c 1.2 -1 2.4 -1.1 3.5 0 c 1 1 1 2.2 0 3.2 c -1 1.1 -2.1 1 -3.4 0.2 c -0.6 -0.4 -1.4 -0.7 -2.1 -0.8 c -5.2 -0.1 -10.3 -0.1 -15.5 0 c -1.9 0 -3.4 -0.6 -4.4 -2.3 c -0.3 -0.5 -1.3 -0.8 -2 -0.8 c -7.9 -0.1 -15.7 0 -23.6 0 c -2.5 0 -2.5 0 -2.5 -2.5 c 0 -1 0.5 -2.2 -1.1 -2.8 c -0.3 -0.1 -0.2 -1.4 -0.4 -2.1 c -0.1 -0.4 -0.5 -0.7 -0.8 -1.1 c -0.3 0.3 -0.7 0.6 -0.8 1 c -0.1 0.5 -0.1 1 0 1.5 c 0.2 1.4 -0.3 2.3 -1.9 2.4 c -1 0.1 -1.5 0.6 -1.4 1.7 c 0.1 1.9 0.1 3.8 0 5.7 c 0 1.8 0.8 2.5 2.5 2.4 c 6.9 0 13.8 0 20.7 0 c 1.5 0 2.3 0.3 2.1 2 c 0 0.6 0.4 1.2 0.8 1.7 c 0.9 1.2 0.9 2.7 -0.1 3.6 c -1.1 0.9 -2.3 0.9 -3.2 -0.1 c -1 -1 -0.9 -2.2 0 -3.4 c 0.4 -0.5 0.7 -1 1.3 -1.9 c -1.2 0 -1.9 0 -2.6 0 c -6.3 0 -12.6 0 -18.9 0 c -3.1 0 -4.4 -1.3 -4.4 -4.3 c 0 -2 0 -4 0 -6 c 0 -0.1 0 -0.1 -0.1 -0.4 c -3.1 -0.3 -3.2 -2.5 -3.1 -5 c 0.1 -3.7 0 -7.4 0 -11.1 c 0 -2.7 0.6 -3.3 3.4 -3.3 c 1.6 0 3.1 0 4.9 0 c 0 2.7 0 5.3 0 7.9 c 0 0.6 -0.1 1.3 0.1 1.9 c 0.1 0.3 0.5 0.6 0.7 0.9 c 0.3 -0.3 0.8 -0.5 0.8 -0.8 c 0 -3.5 0.1 -6.9 -0.1 -10.4 c 0 -0.5 -1.2 -1.1 -2 -1.2 c -1.6 -0.2 -3.3 0 -4.9 -0.1 c -2.1 0 -2.9 -0.7 -2.9 -2.8 c 0 -8.7 0 -17.5 0 -26.2 c 0 -2 0.8 -2.7 2.7 -2.8 c 2.6 0 5.2 0 7.7 -0.1 c 0.6 0 1.2 -0.5 1.8 -0.8 c -0.6 -0.3 -1.2 -0.8 -1.8 -0.9 c -2.5 -0.1 -5 0 -7.5 0 c -2.2 0 -3 -0.8 -3 -2.9 c 0 -4.2 0 -8.4 0 -12.6 c 0 -2.1 0.8 -2.9 3 -2.9 c 6.1 0 12.2 0 18.3 0 c 1.8 0 2.3 0.7 2.3 2.4 c -0.1 2.7 0 5.4 0 8.1 c 0 2.2 0.5 2.7 2.6 2.7 c 4.5 0 9 0 13.6 0 c 0.6 0 1.1 -0.5 1.7 -0.8 c -0.6 -0.3 -1.1 -0.9 -1.7 -1 c -4.1 -0.1 -8.2 -0.1 -12.3 0 c -1.6 0 -2.2 -0.6 -2.2 -2.2 c 0.1 -5 0.1 -9.9 0 -14.9 c 0 -0.6 -0.5 -1.2 -0.8 -1.8 c -0.3 0.6 -0.9 1.2 -0.9 1.8 c 0 4.3 0 3.9 -4.1 3.9 c -5.4 0 -10.8 0 -16.2 0 c -2.7 0 -3.3 -0.6 -3.3 -3.4 c 0 -9.2 0 -18.4 0 -27.5 c 0 -2.7 0.6 -3.3 3.3 -3.3 c 4.3 0 8.5 0 12.8 0 c 0.5 0 1 0.1 1.5 -0.1 c 0.4 -0.1 0.7 -0.6 1 -0.9 c -0.4 -0.3 -0.7 -0.7 -1.1 -0.8 c -2.2 -0.1 -4.4 0 -6.6 0 c -2.6 0 -5.2 0 -7.7 0 c -2.2 0 -3.2 -0.8 -3.2 -2.3 c 0 -1.6 1.1 -2.4 3.3 -2.5 c 2.7 0 5.4 0 8.1 0 c 0.5 0 1 -0.6 1.5 -0.9 c -0.5 -0.3 -1 -0.7 -1.5 -0.7 c -2.8 -0.1 -5.5 0 -8.3 0 c -2.4 0 -3.1 -0.8 -3.1 -3.2 c 0 -2 0 -4 0 -6 c 0 -1.7 0.8 -2.3 2.4 -1.7 c 2.3 0.8 4.5 1.6 6.9 2.5 c 0.1 -0.6 0.1 -1.1 0.2 -1.5 c 0.2 -2.8 2 -4.5 4.8 -4.5 c 3.9 0 7.8 0 11.7 0 c 2.3 0 3.1 -0.6 3.3 -2.9 c 0.1 -1.6 1 -1.6 2.1 -1.6 c 8 0 16 0 23.9 0 c 0.9 0 1.8 -0.5 2.6 -0.9 c 1.3 -0.8 2.4 -0.7 3.4 0.4 c 0.9 1 0.8 2.1 -0.1 3.1 c -1 1.1 -2.2 1.1 -3.4 0.2 c -0.6 -0.4 -1.3 -0.9 -1.9 -0.9 c -8 -0.1 -16 0 -23.9 0 c -0.2 0 -0.5 0 -0.7 0.1 c -1.1 3.6 -2.3 4.4 -6 4.4 c -3.6 0 -7.2 0 -10.7 0 c -2.6 0 -4 2 -3.2 4.5 c 0.1 0.4 0.6 0.7 1.1 0.9 c 1.6 0.6 3.1 1.3 4.8 1.7 c 1.9 0.5 2.6 1.5 2.3 3.4 c -0.1 0.7 0 1.3 0 1.9 c -1 0.5 -1.7 0.9 -2.5 1.3 c 0.5 0.3 1.1 0.7 1.7 0.8 c 1.3 0.1 2.5 0 2.6 -1.7 c 0 -0.6 -0.1 -1.3 0.1 -1.9 c 0.1 -0.5 0.4 -0.9 0.7 -1.3 c 0.5 0.3 1 0.6 1.5 1 c 0.1 0.1 0.2 0.5 0.2 0.7 c 0 5.4 0 10.8 0 16.5 c -2.2 0 -4.3 0 -6.4 0 c -2.5 0 -3 0.5 -3 2.9 c 0 2.6 0 5.2 0 7.7 c 0 1.7 0.8 2.5 2.5 2.5 c 2.2 -0.1 4.5 0 7 0 c 0 1.4 -0.1 2.6 0 3.7 c 0 0.4 0.6 0.8 0.9 1.2 c 0.3 -0.4 0.7 -0.8 0.8 -1.2 c 0.1 -1.1 0 -2.2 0 -3.6 c 1.2 0 2.3 0.1 3.3 0 c 0.5 -0.1 1 -0.5 1.5 -0.8 c -0.5 -0.3 -1 -0.9 -1.5 -0.9 c -3.5 -0.1 -7 0 -10.6 0 c -0.6 0 -1.2 0 -2 0 v -9.6 c 2.6 0 5.2 0 7.8 0 c 0.6 0 1.1 0 1.7 0 c 1 -0.1 1.2 -0.6 0.7 -1.5 c -0.4 -0.6 -0.8 -1.3 -0.8 -2 c -0.1 -3.8 -0.1 -7.5 0 -11.3 c 0 -0.6 0.3 -1.3 0.5 -1.9 c 0.6 0.2 1.2 0.4 1.9 0.6 c 0 0 0.2 -0.1 0.2 -0.1 c 0.2 -3 0.2 -3 3.2 -3 c 5.1 0 10.2 0 15.3 0 c 2.5 0 3.5 -0.9 3.4 -3.4 c -0.1 -1.7 0.6 -2.1 2.2 -2.1 c 7.8 0.1 15.6 0.1 23.4 0 c 0.9 0 1.9 -0.4 2.7 -0.9 c 1.3 -0.7 2.4 -0.8 3.4 0.4 c 0.8 1.1 0.8 2.3 -0.2 3.2 c -1 0.9 -2.1 0.8 -3.3 0 c -0.7 -0.4 -1.5 -0.9 -2.2 -0.9 c -7.5 -0.1 -15 0 -22.4 0 c -0.5 0 -1 0.1 -1.4 0.1 c -0.8 4.4 -1.9 5.3 -6.3 5.3 c -5.1 0 -10.3 0 -15.5 0 c -0.6 2.1 -0.3 3.7 1.2 5.2 c 0.9 0.9 1.3 2.2 1.9 3.3 c -1.2 0.1 -2.4 0.3 -3.6 0.4 c -0.1 0 -0.3 0 -0.4 0 c -0.6 0.2 -1.2 0.5 -1.8 0.8 c 0.6 0.3 1.2 0.7 1.8 0.7 c 1.5 0.1 3 0.1 4.5 0 c 1.3 0 2.5 -0.1 3.2 1.3 c 0.1 0.3 0.6 0.5 0.9 0.5 c 2.3 0 4.6 0 6.8 0 c 0.2 -0.2 0.2 -0.3 0.2 -0.3 c 0.8 -5.8 1.4 -6.3 7.2 -6.3 c 5.4 0 10.8 0 16.2 0 c 0.9 0 1.9 -0.4 2.7 -0.9 c 1.2 -0.7 2.3 -0.8 3.2 0.2 c 1 1 1 2.2 0.1 3.2 c -1 1.1 -2.1 1 -3.4 0.3 c -0.7 -0.5 -1.6 -0.9 -2.5 -0.9 c -6 -0.1 -11.9 0 -17.9 0 c -2.9 0 -3.7 0.8 -3.8 3.6 c 0 3 0 3 -3.1 3 c -1.6 0 -3.1 0 -4.9 0 c 0.3 1.6 -0.6 1.8 -1.8 1.7 c -1.9 -0.1 -3.9 -0.1 -5.8 0 c -0.4 0 -0.9 0.5 -1.3 0.8 c 0.4 0.3 0.9 0.9 1.3 0.9 c 2.6 0.1 5.2 0.1 7.7 0 c 1.3 -0.1 2.2 0.3 2.5 1.6 c 0.4 2 1.7 2.4 3.6 2.3 c 5.3 -0.1 10.6 0 15.8 -0.1 c 1.7 0 2.3 0.6 2.2 2.2 c -0.1 1.9 0 3.8 0 5.7 c 0 2.3 0.7 2.9 2.9 3 c 0.8 0 1.6 0 2.5 0 c 3.1 0 3.7 -0.6 3.7 -3.8 c 0 -2.1 0 -4.3 0 -6.4 c 0 -3.7 1.6 -5.3 5.2 -5.3 c 8.9 0 17.8 0 26.8 0 c 0.8 0 1.7 -0.4 2.5 -0.9 c 1.2 -0.8 2.4 -0.9 3.4 0.2 c 0.9 1 0.9 2.2 -0.1 3.2 c -1 1 -2.1 0.9 -3.2 0.2 c -0.8 -0.5 -1.8 -0.9 -2.6 -0.9 c -8.8 -0.1 -17.6 0 -26.4 0 c -3 0 -3.8 0.8 -3.8 3.8 c 0 2.5 0 4.9 0 7.4 c -0.1 2.7 -1.5 4.2 -4.2 4.3 c -1.4 0.1 -2.8 0.1 -4.1 0 c -2.7 -0.1 -4.2 -1.7 -4.2 -4.3 c 0 -1.9 0 -3.9 0 -5.8 c 0 -0.1 -0.1 -0.2 -0.2 -0.5 h -17.5 c 0 0.2 0 0.5 0 0.7 c 1.1 3.1 1.1 3.1 -2.3 3.1 c -1.8 0 -3.5 -0.1 -5.3 0 c -0.5 0 -0.9 0.6 -1.4 0.9 c 0.5 0.3 0.9 0.8 1.4 0.8 c 2.4 0.1 4.8 0.1 7.2 0 c 1.8 -0.1 2.5 0.6 2.8 2.3 c 0.8 4.3 1.8 8.6 2.8 13 c 4 0 7.9 0 11.8 0 c 1.4 0 2.4 0.1 2.4 1.9 c 0 1.5 1.2 2.3 2.5 2.3 c 5.6 0.1 11.2 0.1 16.8 0 c 1.8 0 2.7 -1.1 2.8 -3.1 c 0.1 -1.9 0.1 -3.9 0 -5.8 c -0.1 -1.5 0.6 -1.9 2 -1.9 c 5.6 0.1 11.2 0.1 16.8 0 c 0.9 0 1.9 -0.4 2.7 -0.9 c 1.3 -0.8 2.4 -0.8 3.4 0.3 c 0.9 1 0.8 2.3 -0.1 3.2 c -1.1 1 -2.2 1 -3.4 0 c -0.4 -0.3 -0.9 -0.8 -1.4 -0.8 c -6 -0.1 -11.9 0 -18.2 0 c 0 2 0 4 0 5.9 c 0 3.2 -1.7 4.9 -4.9 4.9 c -5.3 0 -10.7 0 -16 0 c -2.2 0 -3.8 -1 -4.7 -3.1 c -0.2 -0.5 -0.8 -1 -1.2 -1.1 c -3.6 -0.1 -7.1 0 -11 0 c 0.3 1.8 0.4 3.5 0.8 5.1 c 0.2 1.1 2.8 1.2 4 0.3 c 0.6 -0.4 1.5 -1 2.1 -0.9 c 0.8 0.2 1.8 1 1.9 1.7 c 0.2 0.8 -0.3 2 -0.9 2.5 c -0.5 0.4 -2.1 0.5 -2.5 0 c -1.2 -1.3 -2.5 -1 -3.9 -1 c -0.1 2.6 -0.1 2.6 -2.7 2.7 c -0.4 0 -0.8 -0.1 -1.1 0.1 c -0.3 0.2 -0.6 0.6 -0.7 0.9 c 0 0.2 0.4 0.5 0.7 0.7 c 0.1 0.1 0.2 0 0.4 0.1 c 1.1 0.1 2.7 -0.1 3.3 0.5 c 0.6 0.7 0.3 2.3 0.4 3.8 h 8.9 c 0 1.6 0 2.8 0 4.1 c 0.1 2 1 3 3 3 c 2.7 0 5.4 0 8.1 0 c 2 0 3 -1 3 -3 c 0 -2.5 0.1 -4.9 0 -7.4 c 0 -1.3 0.3 -1.8 1.7 -1.8 c 10.8 0 21.6 0 32.4 0 c 3 0 4.9 2 5.1 5 c 0.1 1.9 -0.3 3.8 1.2 5.5 c 0.3 0.4 -0.2 2.2 -0.8 2.6 c -0.6 0.4 -2.1 0.3 -2.8 -0.1 c -1.1 -0.6 -1.4 -2.1 -0.4 -3 c 1.8 -1.7 1 -3.8 1 -5.6 c -0.1 -1.7 -1.5 -2.6 -3.8 -2.6 c -10 0 -20 0 -30 0 c -0.5 0 -1 0.1 -1.7 0.1 c 0 2.3 0 4.4 0 6.6 c 0 3.9 -1.6 5.5 -5.5 5.5 c -2.3 0 -4.7 0 -7 0 c -3.6 0 -5.1 -1.6 -5.2 -5.2 c 0 -0.6 -0.1 -1.1 -0.1 -1.8 h -7.2 c 0 1.3 0.1 2.6 0 3.9 c -0.3 1.7 -0.7 3.4 -1.2 5.1 c -0.1 0.3 -0.7 0.5 -1.1 0.8 c -0.2 -0.4 -0.5 -0.7 -0.6 -1.1 c -0.5 -3.8 -0.5 -3.8 -4.3 -3.8 c -1.1 0 -2.1 -0.1 -3.2 0 c -0.6 0.1 -1.2 0.5 -1.8 0.8 c 0.6 0.3 1.2 0.8 1.7 0.8 c 2.1 0.1 4.1 0 6.3 0 c 0.1 1.4 0.1 2.7 0.2 4.2 c 1.4 0 2.8 0 4.1 0 c 2.7 0 2.7 0 2.9 3 c 0.7 0 1.4 0.1 2.1 0.1 c 14.6 0 29.2 0 43.7 0 c 1.5 0 2.8 -0.2 3.2 1.9 c 0.1 0.7 1.6 1.5 2.4 1.6 c 3.4 0.2 6.8 0.1 10.2 0 c 0.5 0 1.1 -0.4 1.6 -0.8 c 1.2 -0.9 2.3 -1 3.4 0 c 1 1 1.1 2.2 0.1 3.2 c -1.1 1.2 -2.2 1.1 -3.5 0.2 c -0.6 -0.4 -1.4 -0.8 -2.1 -0.8 c -3 -0.1 -6 -0.1 -9 0 c -2.1 0 -3.7 -0.7 -4.8 -2.7 c -0.3 -0.5 -1.4 -0.9 -2.1 -0.9 c -14.5 0 -29 0 -43.5 0 C 400.9 217.8 400.9 217.8 400.3 214.9 M 409.8 120.2 c -0.8 -0.5 -1.3 -1 -1.7 -1 c -0.4 0.1 -0.8 0.8 -1.1 1.2 c 0.4 0.4 0.8 1 1.3 1 C 408.6 121.4 409.1 120.8 409.8 120.2 M 456.9 174.5 c -0.6 0.7 -1.2 1.2 -1.2 1.6 c 0 0.4 0.7 0.9 1.1 1.3 c 0.4 -0.4 1.1 -0.7 1.2 -1.2 C 458 175.8 457.4 175.2 456.9 174.5 M 467.4 218.9 c -0.6 0.7 -1.2 1.1 -1.2 1.6 c 0 0.4 0.6 1.1 1 1.1 c 0.4 0 1.1 -0.6 1.2 -1 C 468.5 220.1 467.9 219.6 467.4 218.9 M 406.1 190.6 c -0.7 -0.6 -1.1 -1.2 -1.5 -1.2 c -0.4 0 -1.1 0.7 -1.1 1.1 c 0 0.4 0.6 1.1 1 1.2 C 404.8 191.7 405.3 191.1 406.1 190.6 M 430 131.4 c -0.8 -0.6 -1.3 -1.1 -1.7 -1.1 c -0.4 0.1 -0.9 0.7 -1 1.2 c -0.1 0.3 0.7 1 1 1 C 428.7 132.5 429.1 132 430 131.4 M 458.4 155.2 c -0.8 -0.5 -1.3 -1.1 -1.7 -1 c -0.4 0.1 -0.8 0.8 -1.1 1.2 c 0.4 0.4 0.8 1 1.3 1 C 457.2 156.3 457.7 155.7 458.4 155.2 M 446.2 230.6 c -0.8 -0.6 -1.4 -1.2 -1.7 -1.1 c -0.4 0.1 -0.9 0.7 -1 1.2 c -0.1 0.2 0.7 0.9 1.1 0.9 C 444.9 231.7 445.4 231.2 446.2 230.6 M 462.5 206.4 c -0.8 -0.5 -1.2 -1.1 -1.6 -1.1 c -0.4 0 -0.8 0.7 -1.2 1.1 c 0.4 0.4 0.8 1.1 1.2 1.1 C 461.3 207.5 461.7 206.9 462.5 206.4 M 420.8 240.7 c -0.8 -0.5 -1.2 -1.1 -1.7 -1.1 c -0.4 0 -0.8 0.7 -1.2 1.1 c 0.4 0.4 0.8 1 1.2 1.1 C 419.6 241.9 420 241.3 420.8 240.7 M 413.5 260.9 c -0.7 -0.6 -1.2 -1.2 -1.6 -1.1 c -0.4 0 -0.8 0.7 -1.2 1.1 c 0.4 0.4 0.8 1.1 1.2 1.1 C 412.3 262 412.7 261.4 413.5 260.9 M 422.9 144.2 c -0.8 -0.6 -1.2 -1.1 -1.7 -1.1 c -0.4 0 -1.1 0.7 -1.1 0.9 c 0.1 0.5 0.6 1.1 1 1.2 C 421.5 145.3 422 144.7 422.9 144.2 M 379.8 270.5 c -0.7 -0.6 -1.1 -1.3 -1.5 -1.3 c -0.4 0 -1.1 0.6 -1.2 1.1 c 0 0.4 0.6 1.1 1 1.2 C 378.5 271.6 379 271 379.8 270.5 M 435.9 249.5 c -0.6 0.7 -1.2 1.2 -1.2 1.6 c 0 0.4 0.6 0.8 1 1.3 c 0.4 -0.4 1.1 -0.7 1.1 -1.1 C 437 250.8 436.4 250.3 435.9 249.5" stroke-linecap="round"/>
</g>
		<g transform="matrix(1.1478 0 0 1.1478 -70.6582 -46.6999)" id="Layer_1" clip-path="url(#CLIPPATH_83)">
<clipPath id="CLIPPATH_83">
	<rect transform="matrix(1 0 0 1 73.3512 150.6648)" id="SVGID_00000013896703810277407790000014761781640840017838_" x="-396" y="-306" rx="0" ry="0" width="792" height="612"/>
</clipPath>
<path style="stroke: none; stroke-width: 1; stroke-dasharray: none; stroke-linecap: butt; stroke-dashoffset: 0; stroke-linejoin: miter; stroke-miterlimit: 4; is-custom-font: none; font-file-url: none; fill: rgb(0,157,255); fill-rule: nonzero; opacity: 1;" transform=" translate(-322.6488, -155.3352)" d="M 332.8 163.3 c -1.5 -0.8 -3 -1.7 -4.6 -2.4 c -5.7 -2.7 -8.6 -9.9 -4.5 -15.4 c 0.6 -0.8 1.3 -1.5 1.9 -2.1 c -3.3 -0.7 -6.1 1.8 -5.8 5.5 c 0.2 1.9 0.6 3.9 0.6 5.8 c 0 1.2 -0.3 2.5 -0.7 3.6 c -0.7 1.8 -2.6 2.5 -4.5 2 c -0.5 -0.1 -1.1 0 -1.7 0 c 0.2 0.6 0.3 1.3 0.7 1.7 c 2.8 3 5.1 6.2 5.6 10.4 c 0.4 3.2 -0.4 4.4 -3.3 5.7 c -2 0.9 -3.9 2 -6.2 2.8 c 0.6 -0.9 1.2 -1.8 1.9 -2.6 c 0.7 -0.8 1.7 -1.5 2.4 -2.3 c 1.2 -1.4 1.1 -2.9 0.4 -4.3 c -0.9 1.6 -1.7 3.3 -2.9 4.7 c -2.8 3.3 -6.4 4.2 -10.6 3.4 c -1.9 -0.4 -2.9 -2.1 -2.4 -4 c 0.4 -1.6 1.4 -2 3.6 -1.6 c 1.2 0.2 2.4 0.3 3.5 0.3 c 0.3 0 0.7 -0.7 1 -1.1 c -0.4 -0.3 -0.8 -0.7 -1.3 -0.8 c -0.7 -0.1 -1.5 0.1 -2.2 0.1 c -2.6 0.1 -3.7 -0.7 -4.1 -3.2 c -0.7 -3.9 2.1 -7.9 6 -8.8 c 0.7 -0.1 1.3 -0.4 2 -0.6 c 1 -0.4 1.2 -0.8 0.8 -2 c -1 -3 -0.7 -6.2 0.7 -9 c 0.7 -1.4 2.2 -1.8 3.7 -1.6 c 1.5 0.3 1.6 1.5 1.7 2.8 c 0.1 0.8 0.5 1.5 1.1 2.1 c 0.9 -1.8 0.8 -3.5 0.1 -5.1 c -1.3 -3.1 0.9 -7.8 4.1 -8.9 c 2.2 -0.7 4.3 -1.3 6.6 -0.1 c 0.3 0.2 0.9 -0.1 1.3 -0.2 c -0.1 -0.5 -0.2 -1 -0.4 -1.4 c -0.1 -0.2 -0.4 -0.3 -0.6 -0.4 c -2.2 -1.2 -2.2 -1.7 -0.2 -3.1 c 1.1 -0.8 2.3 -2.1 3.6 -1 c 1 0.8 1.7 2.3 1.9 3.6 c 0.4 2.6 -0.9 4.7 -3.4 6.7 c 2.1 -0.7 3.8 -1.8 5.3 -1.6 c 1.6 0.2 3 1.7 4.6 2.7 c -0.1 -1.4 -1 -2.4 -1.9 -3.5 c -1.2 -1.3 -2.6 -2.6 -3.5 -4.2 c -1.4 -2.4 -0.8 -5.1 1.1 -6.9 c 1.8 -1.7 4.1 -1.8 6 -0.3 c 1.9 1.5 2.2 3.3 1 5.7 c -0.4 0.7 -0.6 1.4 -1.1 2.6 c 2.2 -1.1 3.1 -2.4 3.5 -4.3 c 0.1 -0.5 0.6 -1 0.9 -1.5 c 0.4 0.5 1 0.9 1.2 1.5 c 2.3 6.9 -2 16.7 -8.7 19.5 c -1.7 0.7 -3.6 0.9 -5.3 1.5 c 3.1 1 5.9 0.3 8.5 -1.7 c 0.7 -0.6 2.1 -1.2 2.7 -0.8 c 0.7 0.4 1.2 1.8 1.1 2.7 c -0.6 3.1 -1.3 6.2 -2.5 9.2 c -1.7 4.3 -4.9 7 -9.9 6.8 c 1.4 1.5 3.1 1.3 4.7 0.8 c 3.5 -1.1 5.9 0.6 8.3 2.6 c 1.8 1.6 2.1 4.3 1 6.8 c -0.9 2.1 -2.5 3.1 -4.6 2.9 c -0.7 -0.1 -1.6 -0.2 -2.1 -0.7 c -2 -1.7 -4.2 -1.4 -6.4 -0.6 c -1.3 0.5 -2.3 0.4 -3.5 -0.4 c -1.3 -0.9 -2.9 -1.5 -4.3 -2.3 c -2.3 -1.2 -4.3 -2.8 -2.9 -6.4 c 0.3 -0.7 0.3 -1.5 0.3 -2.2 c 0 -2.8 1.4 -4.7 3.4 -6.4 c 1.3 -1 2.7 -1.5 4.4 -0.9 c 0.9 0.3 1.9 0.3 2.9 0.4 C 332.7 163.7 332.8 163.5 332.8 163.3" stroke-linecap="round"/>
</g>
		<g transform="matrix(1.1478 0 0 1.1478 -73.0892 3.2771)" id="Layer_1" clip-path="url(#CLIPPATH_84)">
<clipPath id="CLIPPATH_84">
	<rect transform="matrix(1 0 0 1 75.469 107.1252)" id="SVGID_00000013896703810277407790000014761781640840017838_" x="-396" y="-306" rx="0" ry="0" width="792" height="612"/>
</clipPath>
<path style="stroke: none; stroke-width: 1; stroke-dasharray: none; stroke-linecap: butt; stroke-dashoffset: 0; stroke-linejoin: miter; stroke-miterlimit: 4; is-custom-font: none; font-file-url: none; fill: rgb(0,157,255); fill-rule: nonzero; opacity: 1;" transform=" translate(-320.531, -198.8748)" d="M 306.2 190 c 1.6 -2.3 3.2 -5 5.2 -7.3 c 4.3 -5.1 11.6 -5.1 16 0 c 1 1.1 0.8 2.9 -0.4 3.8 c -1.2 0.9 -2.8 1.6 -2.7 3.9 c 1.3 -1.3 2.5 -2.4 3.7 -3.6 c 2.4 -2.5 4.9 -3.3 8.5 -2.1 c 1.8 0.6 4.1 1.5 6.3 0.4 c 1.5 -0.7 2.5 0 2.8 1.7 c 0.1 0.5 0.1 1 0.1 1.5 c 0.1 2.7 0.2 5.4 0.4 8.1 c 0.3 3.9 -1.3 6.2 -5.1 7.2 c -1.1 0.3 -2.1 0.6 -3.3 0.9 c 1.7 1.5 3.4 0.8 5.1 0.3 c 2.8 -0.7 3.8 0.1 3.4 3.1 c -0.2 1.3 0.1 2.6 -0.1 3.9 c -0.3 3.1 -1.7 5.7 -4.7 6.7 c -3.2 1.1 -6 -0.4 -8.6 -2.2 c -0.1 0 -0.1 -0.1 -0.1 -0.1 c -0.9 -2.2 -2.3 -4.3 -2.7 -6.5 c -0.5 -2.9 -0.4 -6.1 1.4 -8.7 c 0.5 -0.8 1.3 -1.4 2.1 -2.3 c -1.5 0 -2.6 0.2 -3.2 1.5 c -1.1 2.1 -2.2 4.2 -3.3 6.3 c -0.2 0.4 -0.5 0.9 -0.9 1.6 c -0.6 -0.9 -1 -1.7 -1.6 -2.3 c -1.1 -1 -2.2 -2.5 -3.5 -2.8 c -3.8 -0.9 -5.4 -3.3 -5.9 -6.9 c -0.2 -1.5 -0.3 -3.1 -0.9 -4.7 c -0.2 0.8 -0.6 1.6 -0.6 2.4 c 0 1.2 0.2 2.4 0.5 3.5 c 0.9 3.7 0.8 4.1 -2.5 5.9 c -0.5 0.2 -1.1 0.4 -1.6 0.3 c -3.8 -1 -7.7 -1.4 -10.7 -4.5 c -1.7 -1.7 -3.9 -2.8 -4.4 -5.6 c -1.1 -6.4 5.4 -13.2 11.7 -12.2 c 0.7 0.1 1.3 0.6 1.9 1 c -0.3 0.6 -0.5 1.3 -1 1.8 C 306 185.7 305.5 188 306.2 190" stroke-linecap="round"/>
</g>
		<g transform="matrix(1.1478 0 0 1.1478 -68.6095 29.3899)" id="Layer_1" clip-path="url(#CLIPPATH_85)">
<clipPath id="CLIPPATH_85">
	<rect transform="matrix(1 0 0 1 71.5664 84.3757)" id="SVGID_00000013896703810277407790000014761781640840017838_" x="-396" y="-306" rx="0" ry="0" width="792" height="612"/>
</clipPath>
<path style="stroke: none; stroke-width: 1; stroke-dasharray: none; stroke-linecap: butt; stroke-dashoffset: 0; stroke-linejoin: miter; stroke-miterlimit: 4; is-custom-font: none; font-file-url: none; fill: rgb(0,157,255); fill-rule: nonzero; opacity: 1;" transform=" translate(-324.4336, -221.6243)" d="M 303.6 219.9 c 1.4 -2.1 3.3 -2.9 5.8 -2.5 c 1.8 0.3 2.3 -0.4 1.8 -2.2 c -0.4 -1.5 -1 -3 -1.4 -4.5 c -1.1 -4.3 2 -8.8 7 -7.7 c 1 0.2 2.1 0.3 3.2 0.6 c 1.3 0.3 2 1.1 2.2 2.5 c 0.2 0.8 0.9 1.6 1.5 2.3 c 1.1 1.1 2.1 2.3 1.6 3.9 c -0.4 1.2 0 2.1 0.7 3.1 c 0.5 0.8 0.6 1.9 1 3.4 c 0.3 -1.1 0.7 -2 0.7 -2.9 c 0 -1.8 -0.4 -3.5 -0.3 -5.3 c 0.1 -1.5 0.6 -2.9 1 -4.4 c 0.3 0 0.5 0.1 0.8 0.1 c 0 0.8 0.1 1.5 0 2.3 c -0.7 4.1 0.5 7.2 4 9.4 c 0.4 0.2 0.8 0.6 1.2 0.6 c 5.2 0.5 4.2 5.3 6.4 8.2 c 0 -0.8 0.1 -1.6 0 -2.4 c -0.1 -0.9 -0.6 -1.8 -0.6 -2.7 c 0 -0.6 0.4 -1.6 0.9 -1.8 c 1.2 -0.6 2.6 -1 3.9 -1.2 c 0.3 -0.1 1 0.5 1.1 0.9 c 0.2 0.8 0.2 1.6 0.2 2.4 c 0 3.1 0.1 6.3 0.1 9.4 c 0 2.9 -4 7.2 -6.9 7.6 c -1.3 0.2 -2.6 0.5 -3.7 1 c -2.3 1 -3.8 0.2 -3.6 -2.4 c 0.1 -2.2 0.5 -4.4 0.6 -6.5 c 0 -0.8 -0.4 -1.6 -0.6 -2.4 c -0.8 0.3 -1.6 0.5 -2.3 0.9 c -2 0.9 -3.9 2 -5.9 2.8 c -0.5 0.2 -1.7 -0.4 -1.8 -0.9 c -0.8 -3.4 -1.5 -6.8 -2.2 -10.3 c -0.1 -0.7 -0.1 -1.4 0.1 -2.1 c 1 -3 -0.4 -5.3 -2.4 -7.5 c 0.2 0.6 0.3 1.2 0.6 1.8 c 1.5 2.7 1.2 7.8 -0.9 10 c -0.7 0.8 -2 1.3 -3.1 1.5 c -1.8 0.3 -3.7 0.1 -5.6 0.2 c -0.4 0 -0.7 0.2 -1.1 0.6 c 0.2 0 0.4 0.1 0.6 0.1 c 1.3 -0.2 2.7 -0.1 3.3 1.2 c 0.7 1.4 0.6 3.1 -0.4 4.5 c -0.9 1.2 -2.2 1.7 -3.7 1.4 c -2.4 -0.4 -3.6 -2.1 -4.3 -4.3 C 301.9 225.5 302.6 222.6 303.6 219.9 L 303.6 219.9 z" stroke-linecap="round"/>
</g>
		<g transform="matrix(1.1478 0 0 1.1478 -62.1127 57.7551)" id="Layer_1" clip-path="url(#CLIPPATH_86)">
<clipPath id="CLIPPATH_86">
	<rect transform="matrix(1 0 0 1 65.9066 59.6644)" id="SVGID_00000013896703810277407790000014761781640840017838_" x="-396" y="-306" rx="0" ry="0" width="792" height="612"/>
</clipPath>
<path style="stroke: none; stroke-width: 1; stroke-dasharray: none; stroke-linecap: butt; stroke-dashoffset: 0; stroke-linejoin: miter; stroke-miterlimit: 4; is-custom-font: none; font-file-url: none; fill: rgb(0,157,255); fill-rule: nonzero; opacity: 1;" transform=" translate(-330.0934, -246.3356)" d="M 345.6 236.7 c -0.1 0.4 -0.2 1.1 -0.5 1.6 c -1 1.5 -1.5 2.7 0.4 4 c 0.5 0.4 0.7 1.6 0.5 2.3 c -0.2 0.5 -1.3 0.8 -2 0.9 c -1 0 -1.9 -0.3 -3.1 -0.2 c 0.4 0.3 0.8 0.7 1.2 0.9 c 3.8 1.5 4.3 2.3 3.7 6.2 c -0.4 2.8 -2.3 4.2 -4.9 3.3 c -4.1 -1.5 -8.1 -3.3 -12.1 -5 c -3.4 -1.5 -6.6 -3.2 -10.1 -4.5 c -3.4 -1.3 -5 -3.2 -4.5 -6.2 c 0.1 -0.8 1 -1.9 1.5 -1.9 c 0.8 0 2.2 0.8 2.2 1.4 c 0.3 2.5 2.1 2.4 3.6 2 c 2.5 -0.7 4.1 -0.2 5.2 2.2 c 0.4 0.8 1.4 1.4 2.3 1.9 c 2.5 1.6 4.1 1.4 4.9 -1.6 c 0.5 -1.9 2.1 -2.8 3.9 -3.4 C 340.3 239.3 342.8 238 345.6 236.7" stroke-linecap="round"/>
</g>
		<g transform="matrix(1.1478 0 0 1.1478 -72.6553 44.8194)" id="Layer_1" clip-path="url(#CLIPPATH_87)">
<clipPath id="CLIPPATH_87">
	<rect transform="matrix(1 0 0 1 75.0915 70.9338)" id="SVGID_00000013896703810277407790000014761781640840017838_" x="-396" y="-306" rx="0" ry="0" width="792" height="612"/>
</clipPath>
<path style="stroke: none; stroke-width: 1; stroke-dasharray: none; stroke-linecap: butt; stroke-dashoffset: 0; stroke-linejoin: miter; stroke-miterlimit: 4; is-custom-font: none; font-file-url: none; fill: rgb(0,157,255); fill-rule: nonzero; opacity: 1;" transform=" translate(-320.9085, -235.0662)" d="M 317 232.1 c 0.1 2.9 -1.6 4.6 -3.8 5.8 c -1.9 1 -3.9 0.1 -4 -1.8 c 0 -0.8 0.6 -2.2 1.1 -2.2 c 2.1 -0.3 2.1 -1.9 2.2 -3.4 c 0 -0.1 0 -0.3 0 -0.4 c 0 -3.9 0 -3.9 3.7 -5.2 c 1.7 -0.6 2.9 0 3.3 1.7 c 0.5 2.1 0.9 4.1 1.3 6.2 c 0.2 1.5 1.2 1.4 2.2 1.1 c 1.9 -0.6 3.8 -1.2 5.7 -1.9 c 1.5 -0.5 2.4 -0.1 2.3 1.5 c 0 1.2 -0.3 2.4 -0.7 3.5 c -0.5 1.5 -0.3 2.7 1 3.8 c 0.7 0.5 1.2 1.6 1.3 2.5 c 0.2 1.8 -1.4 2.8 -2.8 1.7 c -1.3 -1 -2.4 -2.3 -3.4 -3.7 c -1.4 -2.1 -1.9 -2.4 -4.3 -1.7 c -1.8 0.5 -3.8 -1.1 -4.4 -3.4 C 317.5 234.9 317.3 233.4 317 232.1" stroke-linecap="round"/>
</g>
		<g transform="matrix(1.1478 0 0 1.1478 -95.3275 13.8174)" id="Layer_1" clip-path="url(#CLIPPATH_88)">
<clipPath id="CLIPPATH_88">
	<rect transform="matrix(1 0 0 1 94.8437 97.9428)" id="SVGID_00000013896703810277407790000014761781640840017838_" x="-396" y="-306" rx="0" ry="0" width="792" height="612"/>
</clipPath>
<path style="stroke: none; stroke-width: 1; stroke-dasharray: none; stroke-linecap: butt; stroke-dashoffset: 0; stroke-linejoin: miter; stroke-miterlimit: 4; is-custom-font: none; font-file-url: none; fill: rgb(0,157,255); fill-rule: nonzero; opacity: 1;" transform=" translate(-301.1563, -208.0572)" d="M 304.2 215.5 c -0.8 1.2 -1.7 2.4 -3.3 2.2 c -1.7 -0.2 -2.3 -1.6 -2.7 -3 c -1.3 -4.1 -2.5 -8.3 -3.6 -12.4 c -0.2 -0.6 -0.3 -1.5 0 -2 c 0.4 -0.8 1.2 -1.7 1.9 -1.9 c 0.5 -0.1 1.6 0.8 1.9 1.5 c 1.3 2.5 2.1 5.1 1.2 7.9 c -0.2 0.6 0.1 1.3 0.6 1.9 c 0.3 -1.6 0.5 -3.2 0.8 -4.8 c 0.2 -1.7 1.4 -2.3 2.8 -1.8 c 1.3 0.4 2.6 1.2 3.5 2.2 c 0.8 0.9 0.9 2.5 -0.3 3.1 c -1.9 1 -2.1 2.6 -2.4 4.4 C 304.5 213.7 304.4 214.6 304.2 215.5 L 304.2 215.5 z" stroke-linecap="round"/>
</g>
		<g transform="matrix(1.1478 0 0 1.1478 83.4556 -10.3526)" id="Layer_1" clip-path="url(#CLIPPATH_89)">
<clipPath id="CLIPPATH_89">
	<rect transform="matrix(1 0 0 1 -60.9125 119)" id="SVGID_00000013896703810277407790000014761781640840017838_" x="-396" y="-306" rx="0" ry="0" width="792" height="612"/>
</clipPath>
<path style="stroke: none; stroke-width: 1; stroke-dasharray: none; stroke-linecap: butt; stroke-dashoffset: 0; stroke-linejoin: miter; stroke-miterlimit: 4; is-custom-font: none; font-file-url: none; fill: rgb(0,157,255); fill-rule: nonzero; opacity: 1;" transform=" translate(-456.9125, -187)" d="M 474 186.9 c -0.7 0.9 -1 1.8 -1.7 2.1 c -0.7 0.3 -1.6 0 -2.4 -0.1 c -1.1 -0.2 -2.1 -0.9 -3.2 -0.9 c -6.8 -0.1 -13.7 -0.1 -20.5 0 c -0.8 0 -1.6 0.4 -2.3 0.8 c -1.2 0.8 -2.4 0.9 -3.4 -0.2 c -0.9 -1 -0.9 -2.2 0 -3.2 c 1 -1.1 2.2 -1 3.4 -0.2 c 0.7 0.4 1.5 0.8 2.3 0.9 c 7 0.1 14.1 0.1 21.1 0 c 0.8 0 1.6 -0.6 2.5 -0.9 c 0.9 -0.2 1.8 -0.5 2.6 -0.3 C 473 185.1 473.4 186.1 474 186.9 M 472.9 186.9 c -0.8 -0.5 -1.3 -1.1 -1.7 -1 c -0.4 0.1 -1.1 0.7 -1.1 1.1 c 0 0.4 0.7 1 1.1 1 C 471.7 188 472.2 187.4 472.9 186.9 M 442.2 185.2 c -0.6 0.8 -1.1 1.2 -1.1 1.7 c 0 0.4 0.7 1.1 0.9 1.1 c 0.5 -0.1 1.2 -0.6 1.2 -1 C 443.4 186.6 442.8 186.1 442.2 185.2" stroke-linecap="round"/>
</g>
		<g transform="matrix(1.1478 0 0 1.1478 18.904 85.3269)" id="Layer_1" clip-path="url(#CLIPPATH_90)">
<clipPath id="CLIPPATH_90">
	<rect transform="matrix(1 0 0 1 -4.675 35.644)" id="SVGID_00000013896703810277407790000014761781640840017838_" x="-396" y="-306" rx="0" ry="0" width="792" height="612"/>
</clipPath>
<path style="stroke: none; stroke-width: 1; stroke-dasharray: none; stroke-linecap: butt; stroke-dashoffset: 0; stroke-linejoin: miter; stroke-miterlimit: 4; is-custom-font: none; font-file-url: none; fill: rgb(0,157,255); fill-rule: nonzero; opacity: 1;" transform=" translate(-400.675, -270.356)" d="M 414.9 270.4 c -0.7 0.8 -1.1 1.8 -1.7 2.1 c -0.7 0.3 -2 0.3 -2.4 -0.2 c -1 -1 -2.1 -1 -3.2 -1 c -4.9 0 -9.8 0 -14.7 0 c -0.8 0 -1.6 0.4 -2.3 0.8 c -1.2 0.8 -2.4 0.9 -3.4 -0.1 c -1 -1 -1 -2.2 0 -3.2 c 1 -1.1 2.1 -1 3.4 -0.2 c 0.7 0.4 1.5 0.8 2.3 0.8 c 5.1 0.1 10.2 0.1 15.3 0 c 0.8 0 1.6 -0.6 2.5 -0.8 c 0.9 -0.2 1.8 -0.5 2.6 -0.3 C 413.8 268.6 414.2 269.5 414.9 270.4 M 388.8 268.8 c -0.5 0.7 -1.1 1.2 -1.1 1.7 c 0 0.4 0.7 0.8 1.1 1.2 c 0.4 -0.4 1.1 -0.8 1.1 -1.2 C 390 270 389.4 269.5 388.8 268.8 M 413.7 270.3 c -0.7 -0.5 -1.2 -1.1 -1.6 -1 c -0.4 0.1 -1.1 0.8 -1 1.2 c 0 0.4 0.7 1 1.1 1.1 C 412.5 271.5 413 270.9 413.7 270.3" stroke-linecap="round"/>
</g>
		<g transform="matrix(1.1478 0 0 1.1478 64.9324 51.3508)" id="Layer_1" clip-path="url(#CLIPPATH_91)">
<clipPath id="CLIPPATH_91">
	<rect transform="matrix(1 0 0 1 -44.775 65.244)" id="SVGID_00000013896703810277407790000014761781640840017838_" x="-396" y="-306" rx="0" ry="0" width="792" height="612"/>
</clipPath>
<path style="stroke: none; stroke-width: 1; stroke-dasharray: none; stroke-linecap: butt; stroke-dashoffset: 0; stroke-linejoin: miter; stroke-miterlimit: 4; is-custom-font: none; font-file-url: none; fill: rgb(0,157,255); fill-rule: nonzero; opacity: 1;" transform=" translate(-440.775, -240.756)" d="M 455.3 240.7 c -0.7 0.8 -1 1.8 -1.7 2 c -0.7 0.3 -1.8 0 -2.6 -0.2 c -0.9 -0.2 -1.8 -0.9 -2.7 -0.9 c -5.2 -0.1 -10.4 -0.1 -15.6 0 c -0.8 0 -1.6 0.4 -2.3 0.9 c -1.2 0.8 -2.4 0.9 -3.4 -0.1 c -1 -1 -1 -2.2 0 -3.2 c 1 -1.1 2.2 -1 3.4 -0.2 c 0.7 0.4 1.5 0.8 2.3 0.9 c 5.3 0.1 10.6 0.1 15.8 0 c 0.8 0 1.6 -0.6 2.5 -0.9 c 0.9 -0.2 1.9 -0.5 2.6 -0.3 C 454.2 238.9 454.6 239.9 455.3 240.7 M 430.4 240.8 c -0.8 -0.6 -1.2 -1.1 -1.7 -1.1 c -0.4 0 -1.1 0.7 -1.1 1 c 0.1 0.5 0.6 1.1 1 1.2 C 429 241.9 429.5 241.3 430.4 240.8 M 454.1 240.8 c -0.7 -0.6 -1.2 -1.2 -1.6 -1.2 c -0.4 0 -0.8 0.6 -1.3 1 c 0.4 0.4 0.7 1.1 1.1 1.2 C 452.8 241.9 453.3 241.3 454.1 240.8" stroke-linecap="round"/>
</g>
		<g transform="matrix(1.1478 0 0 1.1478 65.8508 12.2846)" id="Layer_1" clip-path="url(#CLIPPATH_92)">
<clipPath id="CLIPPATH_92">
	<rect transform="matrix(1 0 0 1 -45.5751 99.2785)" id="SVGID_00000013896703810277407790000014761781640840017838_" x="-396" y="-306" rx="0" ry="0" width="792" height="612"/>
</clipPath>
<path style="stroke: none; stroke-width: 1; stroke-dasharray: none; stroke-linecap: butt; stroke-dashoffset: 0; stroke-linejoin: miter; stroke-miterlimit: 4; is-custom-font: none; font-file-url: none; fill: rgb(0,157,255); fill-rule: nonzero; opacity: 1;" transform=" translate(-441.5751, -206.7215)" d="M 452.2 209 c -0.9 -0.3 -1.5 -0.3 -1.7 -0.5 c -1 -1.4 -2.5 -1.1 -3.9 -1.1 c -3.1 0 -6.2 0 -9.2 0 c -1.6 0 -3.3 -0.3 -4.7 1.1 c -0.4 0.4 -2.2 0 -2.9 -0.6 c -1 -0.8 -0.9 -2.3 0.1 -2.9 c 0.8 -0.5 2.5 -0.8 3 -0.3 c 1.1 1.1 2.3 1 3.6 1 c 3.7 0 7.4 0.1 11.1 0 c 0.9 0 1.8 -0.7 2.7 -0.9 c 1 -0.2 2.2 -0.5 2.9 0 c 0.6 0.4 1 1.8 0.8 2.5 C 453.7 207.9 452.7 208.5 452.2 209 M 453.4 206.6 c -0.8 -0.6 -1.3 -1.2 -1.6 -1.2 c -0.4 0.1 -1 0.7 -1.1 1.1 c -0.1 0.2 0.6 1 1 1 C 452.1 207.6 452.6 207.1 453.4 206.6 M 431.6 204.9 c -0.6 0.7 -1.2 1.1 -1.2 1.6 c 0 0.4 0.7 1.1 1.1 1.1 c 0.4 0 1.1 -0.6 1.1 -1 C 432.7 206.1 432.1 205.6 431.6 204.9" stroke-linecap="round"/>
</g>
		<g transform="matrix(1.1478 0 0 1.1478 62.3567 -34.9611)" id="Layer_1" clip-path="url(#CLIPPATH_93)">
<clipPath id="CLIPPATH_93">
	<rect transform="matrix(1 0 0 1 -42.531 140.4389)" id="SVGID_00000013896703810277407790000014761781640840017838_" x="-396" y="-306" rx="0" ry="0" width="792" height="612"/>
</clipPath>
<path style="stroke: none; stroke-width: 1; stroke-dasharray: none; stroke-linecap: butt; stroke-dashoffset: 0; stroke-linejoin: miter; stroke-miterlimit: 4; is-custom-font: none; font-file-url: none; fill: rgb(0,157,255); fill-rule: nonzero; opacity: 1;" transform=" translate(-438.531, -165.5611)" d="M 449.6 165.6 c -0.7 0.8 -1.1 1.8 -1.8 2 c -0.8 0.3 -1.7 -0.1 -2.6 -0.3 c -0.8 -0.2 -1.6 -0.8 -2.5 -0.8 c -2.6 -0.1 -5.2 0 -7.7 0 c -1.4 0 -2.8 -0.2 -3.9 1.1 c -0.9 0.9 -2.2 0.5 -3 -0.5 c -0.8 -1 -0.9 -2.1 0 -3.1 c 0.8 -1 2.1 -1.4 3 -0.4 c 1.2 1.2 2.6 1.1 4 1.1 c 2.3 0 4.5 0 6.8 0 c 1.4 0 2.7 0.2 3.8 -1.1 c 0.4 -0.4 1.6 -0.4 2.2 -0.1 C 448.6 163.9 448.9 164.8 449.6 165.6 M 430 163.9 c -0.6 0.7 -1.2 1.2 -1.2 1.6 c 0 0.4 0.7 0.8 1.1 1.2 c 0.4 -0.4 1.1 -0.8 1.1 -1.2 C 431.1 165.2 430.5 164.7 430 163.9 M 448.4 165.7 c -0.7 -0.6 -1.1 -1.3 -1.5 -1.2 c -0.4 0 -1.1 0.6 -1.2 1 c 0 0.4 0.6 1.1 1 1.2 C 447.2 166.8 447.7 166.2 448.4 165.7" stroke-linecap="round"/>
</g>
		<g transform="matrix(1.1478 0 0 1.1478 -72.0572 -37.9009)" id="Layer_1" clip-path="url(#CLIPPATH_94)">
<clipPath id="CLIPPATH_94">
	<rect transform="matrix(1 0 0 1 74.5707 143)" id="SVGID_00000013896703810277407790000014761781640840017838_" x="-396" y="-306" rx="0" ry="0" width="792" height="612"/>
</clipPath>
<path style="stroke: none; stroke-width: 1; stroke-dasharray: none; stroke-linecap: butt; stroke-dashoffset: 0; stroke-linejoin: miter; stroke-miterlimit: 4; is-custom-font: none; font-file-url: none; fill: rgb(0,157,255); fill-rule: nonzero; opacity: 1;" transform=" translate(-321.4293, -163)" d="M 321.6 156.3 c 1 1.7 1.1 3 0.1 4.5 c -0.5 0.8 -0.6 1.9 -0.7 3 c 3 -3 3.2 -3 5.2 -1.4 c -3.1 1.4 -5.1 3.7 -5.4 7.3 c -0.9 -1.4 -1.9 -2.8 -2.5 -4.4 c -0.4 -1 -0.3 -2.2 -1.6 -2.7 c -0.1 0 0 -1.1 0.1 -1.1 C 319.8 161.3 320.5 158.8 321.6 156.3" stroke-linecap="round"/>
</g>
		<g transform="matrix(1.1478 0 0 1.1478 49.2059 32.2551)" id="Layer_1" clip-path="url(#CLIPPATH_95)">
<clipPath id="CLIPPATH_95">
	<rect transform="matrix(1 0 0 1 -31.0738 81.8802)" id="SVGID_00000013896703810277407790000014761781640840017838_" x="-396" y="-306" rx="0" ry="0" width="792" height="612"/>
</clipPath>
<path style="stroke: none; stroke-width: 1; stroke-dasharray: none; stroke-linecap: butt; stroke-dashoffset: 0; stroke-linejoin: miter; stroke-miterlimit: 4; is-custom-font: none; font-file-url: none; fill: rgb(0,157,255); fill-rule: nonzero; opacity: 1;" transform=" translate(-427.0738, -224.1198)" d="M 435.4 224.2 c -0.7 0.8 -1.2 1.7 -1.9 2 c -0.7 0.2 -1.8 0.1 -2.4 -0.3 c -2 -1.3 -6.5 -1.3 -8.5 0.1 c -1.1 0.8 -2.3 0.7 -3.2 -0.3 c -0.8 -1 -0.9 -2.1 -0.1 -3.1 c 0.9 -1 2 -1.2 3.2 -0.4 c 2.2 1.5 6.5 1.4 8.7 0.1 c 0.7 -0.4 1.9 -0.4 2.6 -0.1 C 434.4 222.4 434.8 223.3 435.4 224.2 M 434.2 224.1 c -0.7 -0.6 -1.2 -1.2 -1.6 -1.2 c -0.4 0 -0.8 0.7 -1.2 1.1 c 0.4 0.4 0.8 1.1 1.2 1.1 C 433 225.2 433.5 224.6 434.2 224.1 M 421.3 222.4 c -0.6 0.7 -1.2 1.1 -1.2 1.5 c 0 0.4 0.6 0.9 1 1.3 c 0.4 -0.4 1.1 -0.7 1.2 -1.1 C 422.3 223.7 421.8 223.2 421.3 222.4" stroke-linecap="round"/>
</g>
		<g transform="matrix(1.1478 0 0 1.1478 -47.7565 -35.6627)" id="Layer_1" clip-path="url(#CLIPPATH_96)">
<clipPath id="CLIPPATH_96">
	<rect transform="matrix(1 0 0 1 53.4 141.05)" id="SVGID_00000013896703810277407790000014761781640840017838_" x="-396" y="-306" rx="0" ry="0" width="792" height="612"/>
</clipPath>
<path style="stroke: none; stroke-width: 1; stroke-dasharray: none; stroke-linecap: butt; stroke-dashoffset: 0; stroke-linejoin: miter; stroke-miterlimit: 4; is-custom-font: none; font-file-url: none; fill: rgb(0,157,255); fill-rule: nonzero; opacity: 1;" transform=" translate(-342.6, -164.95)" d="M 345 172.6 c -0.4 -0.6 -1 -1 -1.2 -1.7 c -0.4 -1.7 -1.3 -2.1 -2.9 -1.8 c -0.5 0.1 -1 -0.1 -1.5 -0.2 c 0.2 -0.5 0.3 -1 0.6 -1.5 c 0.7 -1 1.7 -1.7 2.2 -2.8 c 0.7 -1.6 1.1 -3.4 1.6 -5.1 c 0.2 -0.7 0.3 -1.5 0.4 -2.2 c 0.4 0.1 0.7 0.1 0.7 0.1 c 0.1 2.4 1.3 4.7 0.4 7.3 c -0.4 1.2 -0.1 2.7 0 4 c 0.1 1.1 0.4 2.3 0.5 3.4 C 345.6 172.4 345.3 172.5 345 172.6" stroke-linecap="round"/>
</g>
		<g transform="matrix(1.1478 0 0 1.1478 26.1072 -50.6453)" id="Layer_1" clip-path="url(#CLIPPATH_97)">
<clipPath id="CLIPPATH_97">
	<rect transform="matrix(1 0 0 1 -10.9502 154.1031)" id="SVGID_00000013896703810277407790000014761781640840017838_" x="-396" y="-306" rx="0" ry="0" width="792" height="612"/>
</clipPath>
<path style="stroke: none; stroke-width: 1; stroke-dasharray: none; stroke-linecap: butt; stroke-dashoffset: 0; stroke-linejoin: miter; stroke-miterlimit: 4; is-custom-font: none; font-file-url: none; fill: rgb(0,157,255); fill-rule: nonzero; opacity: 1;" transform=" translate(-406.9502, -151.8969)" d="M 406.9 152.4 c -1.4 0.5 -2.9 1 -4.3 1.6 c -1.2 0.5 -2.2 0.4 -3 -0.6 c -0.8 -1 -0.8 -2.1 0.1 -3.1 c 0.9 -1 2 -1.1 3.2 -0.3 c 1.9 1.4 6.6 1.4 8.5 0 c 1.1 -0.8 2.4 -0.9 3.1 0.3 c 0.5 0.8 0.5 2.2 0.1 3 c -0.5 1.1 -2 1.5 -2.9 0.6 C 410.3 152.5 408.7 152.9 406.9 152.4 M 401.3 150.3 c -0.5 0.8 -1 1.3 -1 1.7 c 0.1 0.4 0.7 0.8 1.1 1.1 c 0.4 -0.4 1 -0.8 1 -1.3 C 402.6 151.4 401.9 151 401.3 150.3 M 412.8 153.6 c 0.5 -0.8 1.1 -1.2 1.1 -1.7 c 0 -0.4 -0.7 -0.8 -1.1 -1.2 c -0.4 0.4 -1 0.8 -1.1 1.2 C 411.7 152.4 412.3 152.8 412.8 153.6" stroke-linecap="round"/>
</g>
		<g transform="matrix(1.1478 0 0 1.1478 21.2188 -28.5248)" id="Layer_1" clip-path="url(#CLIPPATH_98)">
<clipPath id="CLIPPATH_98">
	<rect transform="matrix(1 0 0 1 -6.6913 134.8315)" id="SVGID_00000013896703810277407790000014761781640840017838_" x="-396" y="-306" rx="0" ry="0" width="792" height="612"/>
</clipPath>
<path style="stroke: none; stroke-width: 1; stroke-dasharray: none; stroke-linecap: butt; stroke-dashoffset: 0; stroke-linejoin: miter; stroke-miterlimit: 4; is-custom-font: none; font-file-url: none; fill: rgb(0,157,255); fill-rule: nonzero; opacity: 1;" transform=" translate(-402.6913, -171.1685)" d="M 402.6 178 c -0.8 -0.7 -1.7 -1.1 -2 -1.8 c -0.3 -0.7 -0.1 -1.8 0.3 -2.4 c 1.3 -2 1.4 -3.7 0 -5.5 c -0.8 -1.1 -0.9 -2.2 0.1 -3.2 c 1 -1 2.2 -1 3.2 -0.1 c 1.1 1 1.2 2.1 0.3 3.3 c -1.3 1.8 -1.2 3.5 0 5.5 c 0.4 0.7 0.5 1.8 0.2 2.6 C 404.5 177 403.5 177.4 402.6 178 M 402.7 173.5 c -0.6 0.8 -1.2 1.3 -1.1 1.7 c 0 0.4 0.7 0.9 1.2 1 c 0.3 0.1 1 -0.7 1 -1 C 403.8 174.8 403.3 174.4 402.7 173.5 M 404.4 166.7 c -0.8 -0.5 -1.3 -1 -1.8 -1 c -0.4 0 -1.1 0.8 -1 1 c 0.1 0.5 0.7 1.1 1.1 1.2 C 403.1 167.9 403.6 167.3 404.4 166.7" stroke-linecap="round"/>
</g>
		<g transform="matrix(1.1478 0 0 1.1478 16.9386 42.9977)" id="Layer_1" clip-path="url(#CLIPPATH_99)">
<clipPath id="CLIPPATH_99">
	<rect transform="matrix(1 0 0 1 -2.9625 72.5212)" id="SVGID_00000013896703810277407790000014761781640840017838_" x="-396" y="-306" rx="0" ry="0" width="792" height="612"/>
</clipPath>
<path style="stroke: none; stroke-width: 1; stroke-dasharray: none; stroke-linecap: butt; stroke-dashoffset: 0; stroke-linejoin: miter; stroke-miterlimit: 4; is-custom-font: none; font-file-url: none; fill: rgb(0,157,255); fill-rule: nonzero; opacity: 1;" transform=" translate(-398.9625, -233.4788)" d="M 403.6 236 c -0.8 -0.3 -1.3 -0.4 -1.6 -0.6 c -2 -1.7 -3.9 -1.5 -6 0 c -1 0.8 -2.2 0.5 -3 -0.5 c -0.9 -1.1 -0.8 -2.2 0.1 -3.2 c 0.9 -0.9 2 -1 3.1 -0.2 c 2.1 1.5 3.4 1.4 5.8 0 c 0.7 -0.4 2.1 -0.3 2.7 0.1 c 0.6 0.5 1 1.8 0.8 2.6 C 405.2 234.9 404.2 235.4 403.6 236 M 396.4 233.2 c -0.8 -0.5 -1.3 -1 -1.7 -1 c -0.4 0.1 -1 0.8 -1 1.2 c 0 0.4 0.8 1 1.2 1 C 395.3 234.4 395.7 233.8 396.4 233.2 M 403.3 231.7 c -0.5 0.7 -1.2 1.2 -1.1 1.6 c 0 0.4 0.7 0.8 1.1 1.2 c 0.4 -0.4 1.1 -0.8 1.2 -1.2 C 404.4 232.9 403.8 232.4 403.3 231.7" stroke-linecap="round"/>
</g>
		<g transform="matrix(1.1478 0 0 1.1478 35.2887 1.6432)" id="Layer_1" clip-path="url(#CLIPPATH_100)">
<clipPath id="CLIPPATH_100">
	<rect transform="matrix(1 0 0 1 -18.949 108.5491)" id="SVGID_00000013896703810277407790000014761781640840017838_" x="-396" y="-306" rx="0" ry="0" width="792" height="612"/>
</clipPath>
<path style="stroke: none; stroke-width: 1; stroke-dasharray: none; stroke-linecap: butt; stroke-dashoffset: 0; stroke-linejoin: miter; stroke-miterlimit: 4; is-custom-font: none; font-file-url: none; fill: rgb(0,157,255); fill-rule: nonzero; opacity: 1;" transform=" translate(-414.949, -197.4509)" d="M 415 190.6 c 0.8 0.7 1.8 1.1 2 1.8 c 0.3 0.7 0.1 1.9 -0.3 2.6 c -1.1 1.7 -1.2 3.7 0 5.3 c 0.9 1.1 0.9 2.2 0 3.2 c -1 1 -2.3 1.1 -3.4 0.1 c -1 -0.9 -1 -2.1 -0.2 -3.2 c 1.3 -1.9 1.2 -3.6 0.1 -5.5 c -0.4 -0.7 -0.5 -1.8 -0.2 -2.6 C 413.2 191.7 414.2 191.3 415 190.6 M 414.9 191.8 c -0.5 0.8 -1.1 1.3 -1 1.7 c 0.1 0.4 0.7 0.8 1.1 1.2 c 0.4 -0.4 1.1 -0.8 1.1 -1.3 C 416.1 193 415.5 192.5 414.9 191.8 M 416.7 202 c -0.8 -0.6 -1.2 -1.1 -1.7 -1.1 c -0.4 0 -1.1 0.7 -1.1 0.9 c 0.1 0.5 0.6 1.2 1 1.2 C 415.3 203 415.8 202.5 416.7 202" stroke-linecap="round"/>
</g>
		<g transform="matrix(1.1478 0 0 1.1478 58.4761 -59.5614)" id="Layer_1" clip-path="url(#CLIPPATH_101)">
<clipPath id="CLIPPATH_101">
	<rect transform="matrix(1 0 0 1 -39.15 161.8707)" id="SVGID_00000013896703810277407790000014761781640840017838_" x="-396" y="-306" rx="0" ry="0" width="792" height="612"/>
</clipPath>
<path style="stroke: none; stroke-width: 1; stroke-dasharray: none; stroke-linecap: butt; stroke-dashoffset: 0; stroke-linejoin: miter; stroke-miterlimit: 4; is-custom-font: none; font-file-url: none; fill: rgb(0,157,255); fill-rule: nonzero; opacity: 1;" transform=" translate(-435.15, -144.1293)" d="M 435.1 144.6 c -1.1 0.6 -2 1 -2.8 1.5 c -1.2 0.7 -2.3 0.7 -3.2 -0.4 c -0.9 -1 -0.8 -2.1 0 -3.1 c 0.9 -1.1 2 -1.2 3.2 -0.4 c 2.1 1.4 3.6 1.4 5.7 0 c 1.2 -0.8 2.3 -0.7 3.2 0.4 c 0.8 1 0.9 2.1 0 3.1 c -0.9 1.1 -2 1.1 -3.2 0.4 C 437.1 145.6 436.2 145.1 435.1 144.6 M 437.7 144.2 c 0.8 0.5 1.2 1.1 1.7 1.1 c 0.4 -0.1 0.8 -0.7 1.2 -1.1 c -0.4 -0.4 -0.8 -1 -1.2 -1.1 C 438.9 143 438.4 143.6 437.7 144.2 M 432.5 144.2 c -0.7 -0.6 -1.2 -1.2 -1.6 -1.2 c -0.4 0 -1.1 0.6 -1.1 1 c 0 0.4 0.6 1.1 1 1.1 C 431.2 145.3 431.7 144.7 432.5 144.2" stroke-linecap="round"/>
</g>
		<g transform="matrix(1.1478 0 0 1.1478 4.6062 -76.9943)" id="Layer_1" clip-path="url(#CLIPPATH_102)">
<clipPath id="CLIPPATH_102">
	<rect transform="matrix(1 0 0 1 7.7815 177.0583)" id="SVGID_00000013896703810277407790000014761781640840017838_" x="-396" y="-306" rx="0" ry="0" width="792" height="612"/>
</clipPath>
<path style="stroke: none; stroke-width: 1; stroke-dasharray: none; stroke-linecap: butt; stroke-dashoffset: 0; stroke-linejoin: miter; stroke-miterlimit: 4; is-custom-font: none; font-file-url: none; fill: rgb(0,157,255); fill-rule: nonzero; opacity: 1;" transform=" translate(-388.2185, -128.9417)" d="M 395.1 128.9 c -0.6 0.9 -1 1.8 -1.7 2.1 c -0.7 0.3 -1.9 0.2 -2.6 -0.2 c -1.9 -1.2 -3.7 -1.3 -5.5 0 c -1.1 0.8 -2.2 0.8 -3.2 -0.2 c -1 -1 -1 -2.2 -0.1 -3.2 c 0.9 -1 2 -1.2 3.2 -0.4 c 2.1 1.4 3.6 1.3 5.6 0.1 c 0.6 -0.4 1.7 -0.5 2.4 -0.2 C 394 127.2 394.4 128.1 395.1 128.9 M 392.4 130.7 c 0.5 -0.8 1.1 -1.3 1 -1.7 c -0.1 -0.4 -0.8 -1.1 -1.2 -1.1 c -0.4 0 -1 0.7 -1.1 1.2 C 391.2 129.5 391.8 129.9 392.4 130.7 M 385.1 129.4 c 0.2 -0.3 0.4 -0.7 0.6 -1 c -0.6 -0.2 -1.2 -0.6 -1.7 -0.5 c -0.5 0.1 -1.2 0.6 -1.3 1 c -0.1 0.4 0.5 1.1 0.9 1.3 C 384.1 130.2 384.6 129.7 385.1 129.4" stroke-linecap="round"/>
</g>
		<g transform="matrix(1.1478 0 0 1.1478 45.5055 74.438)" id="Layer_1" clip-path="url(#CLIPPATH_103)">
<clipPath id="CLIPPATH_103">
	<rect transform="matrix(1 0 0 1 -27.85 45.1304)" id="SVGID_00000013896703810277407790000014761781640840017838_" x="-396" y="-306" rx="0" ry="0" width="792" height="612"/>
</clipPath>
<path style="stroke: none; stroke-width: 1; stroke-dasharray: none; stroke-linecap: butt; stroke-dashoffset: 0; stroke-linejoin: miter; stroke-miterlimit: 4; is-custom-font: none; font-file-url: none; fill: rgb(0,157,255); fill-rule: nonzero; opacity: 1;" transform=" translate(-423.85, -260.8696)" d="M 423.9 261.4 c -1 0.5 -1.9 0.8 -2.7 1.3 c -1.2 0.8 -2.4 0.8 -3.4 -0.3 c -0.9 -1 -0.9 -2.2 0.1 -3.2 c 1 -1.1 2.2 -1 3.4 0 c 1.5 1.2 3.6 1.2 5.1 0 c 1.1 -0.9 2.3 -1 3.4 0.1 c 1 1 1 2.2 0.1 3.2 c -1 1.1 -2.1 1 -3.4 0.3 C 425.7 262.2 424.9 261.8 423.9 261.4 M 429.8 261 c -0.7 -0.6 -1.1 -1.2 -1.5 -1.2 c -0.4 0 -1.2 0.6 -1.2 1 c 0 0.4 0.6 1.1 1 1.2 C 428.5 262 429 261.4 429.8 261 M 419.7 262.5 c 0.5 -0.8 1.1 -1.3 1 -1.7 c -0.1 -0.4 -0.7 -0.8 -1.1 -1.2 c -0.4 0.4 -1 0.8 -1.1 1.2 C 418.5 261.3 419.1 261.7 419.7 262.5" stroke-linecap="round"/>
</g>
		<g transform="matrix(1.1478 0 0 1.1478 44.1183 -20.0088)" id="Layer_1" clip-path="url(#CLIPPATH_104)">
<clipPath id="CLIPPATH_104">
	<rect transform="matrix(1 0 0 1 -26.6415 127.4125)" id="SVGID_00000013896703810277407790000014761781640840017838_" x="-396" y="-306" rx="0" ry="0" width="792" height="612"/>
</clipPath>
<path style="stroke: none; stroke-width: 1; stroke-dasharray: none; stroke-linecap: butt; stroke-dashoffset: 0; stroke-linejoin: miter; stroke-miterlimit: 4; is-custom-font: none; font-file-url: none; fill: rgb(0,157,255); fill-rule: nonzero; opacity: 1;" transform=" translate(-422.6415, -178.5875)" d="M 429.5 178.7 c -0.7 0.8 -1.1 1.8 -1.8 2 c -0.8 0.2 -1.9 0.1 -2.6 -0.4 c -1.7 -1.1 -3.7 -1.2 -5.2 0 c -1.2 0.9 -2.5 1 -3.5 -0.2 c -0.9 -1 -0.8 -2.2 0.2 -3.2 c 1.1 -1 2.3 -0.9 3.4 0 c 1.4 1.2 3.5 1 5.1 0 c 0.7 -0.5 1.9 -0.6 2.7 -0.3 C 428.5 176.8 428.9 177.8 429.5 178.7 M 419.9 178.5 c -0.8 -0.5 -1.3 -1 -1.7 -1 c -0.4 0.1 -0.8 0.7 -1.1 1.2 c 0.4 0.4 0.8 1 1.3 1 C 418.8 179.7 419.2 179 419.9 178.5 M 428.4 178.6 c -0.8 -0.6 -1.3 -1.2 -1.7 -1.1 c -0.4 0.1 -1 0.7 -1.1 1.2 c -0.1 0.2 0.6 1 1 1 C 427.1 179.7 427.6 179.1 428.4 178.6" stroke-linecap="round"/>
</g>
		<g transform="matrix(1.1478 0 0 1.1478 -88.604 19.8499)" id="Layer_1" clip-path="url(#CLIPPATH_105)">
<clipPath id="CLIPPATH_105">
	<rect transform="matrix(1 0 0 1 88.9864 92.6875)" id="SVGID_00000013896703810277407790000014761781640840017838_" x="-396" y="-306" rx="0" ry="0" width="792" height="612"/>
</clipPath>
<path style="stroke: none; stroke-width: 1; stroke-dasharray: none; stroke-linecap: butt; stroke-dashoffset: 0; stroke-linejoin: miter; stroke-miterlimit: 4; is-custom-font: none; font-file-url: none; fill: rgb(0,157,255); fill-rule: nonzero; opacity: 1;" transform=" translate(-307.0136, -213.3125)" d="M 304.2 215.6 c 0.8 -1.6 1.5 -3.1 2.3 -4.7 c 0.3 -0.5 0.8 -0.9 1.2 -1.3 c 0.4 0.5 1.1 0.8 1.3 1.4 c 0.4 1 0.7 2.2 0.8 3.3 c 0.1 0.6 -0.1 1.2 -0.2 1.7 c -0.6 -0.1 -1.2 -0.2 -1.9 -0.4 C 305 217.5 305 217.5 304.2 215.6 C 304.2 215.5 304.2 215.6 304.2 215.6" stroke-linecap="round"/>
</g>
		<g transform="matrix(1.1478 0 0 1.1478 -90.8094 -44.6157)" id="Layer_1" clip-path="url(#CLIPPATH_106)">
<clipPath id="CLIPPATH_106">
	<rect transform="matrix(1 0 0 1 90.9077 148.85)" id="SVGID_00000013896703810277407790000014761781640840017838_" x="-396" y="-306" rx="0" ry="0" width="792" height="612"/>
</clipPath>
<path style="stroke: none; stroke-width: 1; stroke-dasharray: none; stroke-linecap: butt; stroke-dashoffset: 0; stroke-linejoin: miter; stroke-miterlimit: 4; is-custom-font: none; font-file-url: none; fill: rgb(0,157,255); fill-rule: nonzero; opacity: 1;" transform=" translate(-305.0923, -157.15)" d="M 306.9 153.7 c 0 0.5 -0.1 1 -0.1 1.5 c 0 0.9 -0.1 1.8 0.2 2.7 c 0.4 1.2 0.2 1.8 -1.1 2 c -0.4 0 -0.7 0.1 -1.1 0.2 c -0.6 0.2 -1.2 0.4 -1.8 0.6 c 0.1 -0.7 0.1 -1.6 0.5 -2.2 c 0.8 -1.7 1.8 -3.3 2.7 -4.9 C 306.4 153.6 306.7 153.6 306.9 153.7" stroke-linecap="round"/>
</g>
		<g transform="matrix(1.1478 0 0 1.1478 -94.6038 28.7384)" id="Layer_1" clip-path="url(#CLIPPATH_107)">
<clipPath id="CLIPPATH_107">
	<rect transform="matrix(1 0 0 1 94.2134 84.9439)" id="SVGID_00000013896703810277407790000014761781640840017838_" x="-396" y="-306" rx="0" ry="0" width="792" height="612"/>
</clipPath>
<path style="stroke: none; stroke-width: 1; stroke-dasharray: none; stroke-linecap: butt; stroke-dashoffset: 0; stroke-linejoin: miter; stroke-miterlimit: 4; is-custom-font: none; font-file-url: none; fill: rgb(0,157,255); fill-rule: nonzero; opacity: 1;" transform=" translate(-301.7866, -221.0561)" d="M 303.7 219.8 c -0.4 1 -0.8 2 -1.2 3 c -0.1 0.3 -0.3 0.6 -0.5 0.9 c -0.3 -0.2 -0.7 -0.4 -0.9 -0.7 c -0.3 -0.5 -0.4 -1.2 -0.6 -1.8 c -0.3 -0.8 -1.3 -1.9 0.1 -2.3 C 301.4 218.6 303.2 217.6 303.7 219.8 C 303.6 219.9 303.7 219.8 303.7 219.8" stroke-linecap="round"/>
</g>
		<g transform="matrix(1.1478 0 0 1.1478 -98.9502 -16.6657)" id="Layer_1" clip-path="url(#CLIPPATH_108)">
<clipPath id="CLIPPATH_108">
	<rect transform="matrix(1 0 0 1 98 124.5)" id="SVGID_00000013896703810277407790000014761781640840017838_" x="-396" y="-306" rx="0" ry="0" width="792" height="612"/>
</clipPath>
<path style="stroke: none; stroke-width: 1; stroke-dasharray: none; stroke-linecap: butt; stroke-dashoffset: 0; stroke-linejoin: miter; stroke-miterlimit: 4; is-custom-font: none; font-file-url: none; fill: rgb(0,157,255); fill-rule: nonzero; opacity: 1;" transform=" translate(-298, -181.5)" d="M 300 181.5 c -1.2 1.1 -2.3 2 -3.4 3 c -0.2 -0.1 -0.4 -0.3 -0.6 -0.4 c 0.7 -1.7 1.4 -3.5 2.3 -5.6 C 299 179.7 299.5 180.5 300 181.5" stroke-linecap="round"/>
</g>
</g>
</g>
</svg>